<?xml version="1.0" encoding="UTF-8"?>
<svg id="Capa_3" data-name="Capa 3" xmlns="http://www.w3.org/2000/svg" viewBox="0 0 500 500">
  <defs>
    <style>
      .cls-1 {
        fill: #fff;
      }

      .cls-2 {
        stroke: #fff;
        stroke-miterlimit: 10;
        stroke-width: 7px;
      }

      .cls-2, .cls-3 {
        fill: none;
      }
    </style>
  </defs>
  <rect class="cls-1" x="317.11" y="138.76" width="22.5" height="6.96"/>
  <rect class="cls-1" x="317.11" y="156.71" width="22.5" height="6.96"/>
  <rect class="cls-1" x="317.11" y="174.66" width="22.5" height="6.96"/>
  <rect class="cls-1" x="317.11" y="192.61" width="22.5" height="6.96"/>
  <rect class="cls-1" x="317.11" y="210.57" width="22.5" height="6.96"/>
  <rect class="cls-1" x="317.11" y="228.52" width="22.5" height="6.96"/>
  <polyline class="cls-2" points="250.98 216.11 250.98 121.52 351.02 121.52 351.02 274.2"/>
  <line class="cls-3" x1="347.48" y1="274.27" x2="355.69" y2="274.12"/>
  <path class="cls-2" d="m93.76,321.43v-56.41h-22.86c-.26,0-.35-.34-.12-.47l49.94-27.18v-24.96h24.89v11.42l59.45-32.35,133.31,73.41c.07.03.04.13-.03.13h-23.85v56.41"/>
  <polyline class="cls-2" points="361.76 287.65 361.76 166.49 391.32 159.17 420.88 166.49 420.88 252.39 386.36 223.59"/>
  <polyline class="cls-2" points="442.82 383.98 442.82 263.76 434.48 263.63 421 252.39 386.48 223.59 386.48 283.97 386.48 383.98"/>
  <rect class="cls-1" x="370.18" y="383.98" width="19.3" height="5.98"/>
  <rect class="cls-1" x="439.81" y="383.98" width="19.21" height="5.98"/>
  <polygon class="cls-1" points="391.49 101.82 385.05 161.37 397.59 161.25 391.49 101.82"/>
  <g>
    <rect class="cls-1" x="194.59" y="222.06" width="8.31" height="8.31"/>
    <rect class="cls-1" x="206.16" y="222.06" width="8.31" height="8.31"/>
    <rect class="cls-1" x="206.16" y="232.97" width="8.31" height="8.31"/>
    <rect class="cls-1" x="194.59" y="232.97" width="8.31" height="8.31"/>
  </g>
  <path class="cls-1" d="m42.21,332.6c2.15-.6,11.95-2.84,17.73-2.61,1.14.04,1.92-.46,1.95-1.74.08-3.3.62-6.5,2.07-9.51.31-.65.09-1.33-.1-2.02-.41-1.49-.62-3.02-.32-4.55.4-2.07-.54-3.02-2.52-3.18-2.01-.16-2.1-1-.93-2.43.52-.63,1.8-1.07,1.01-2.22-.63-.91-1.6-.42-2.44-.06-.15-3.43-.24-3.51-3.48-3.54-1,0-2.08.2-2.97-.12-2.64-.94-1.8-3.32-1.91-5.27-.1-1.72,1.26-2.09,2.43-2.11,7.27-.11,14.61-.93,21.76.75,4.32,1.02,7.68,3.82,9.92,7.73,1.91,3.34.63,5.54-3.36,5.92-.61.06-1.23.03-1.84,0-1.22-.06-1.87.47-1.9,1.72-.06,2.3-.15,4.6-.22,6.9-.02.62.09,1.22.5,1.73,2.51,3.15,3.87,6.84,4.99,10.63.35,1.18,1.2.99,2.01,1.02,3.76.14,7.53.17,11.28.43,3.67.25,7.38.49,10.99,1.16,3.62.67,6.3,2.81,5.71,6.41-.1.62-.1,1.36-.61,1.68-3.78,2.31-3.42,6.38-3.71,9.8-.78,9.29-2.32,18.45-3.69,27.65-.56,3.74-1.2,7.57-1.09,11.4.1,3.63-1.91,5.42-4.97,6.74-5.76,2.49-11.82,3.08-17.98,3.24-6.15.16-12.27-.28-18.26-1.59-2.88-.63-5.68-1.82-8.33-3.25-1.84-1-2.38-2.71-2.55-4.53-.33-3.66-.54-7.33-1.24-10.95-1-5.12-.78-10.35-1.35-15.51-.21-1.89-.78-3.47-2.43-4.9-4.14-3.57-4.66-7.86-1.85-13.52.91-1.84.83-2.2-.82-3.69-3.57-1.07-3.13-6.54-1.48-7.61Zm28.64-2.62c0-.06,0-.12,0-.18,2.14,0,4.28.01,6.42,0,.99,0,2,.2,1.02-1.47-.6-1.04-.48-2.49-.72-3.75-.47-2.55-1.11-5.19-2.85-7.05-1.2-1.28-3.37-.26-5.09-.47-.23-.03-.46-.01-.69-.02q-3.34-.07-3.85,3.31c-.03.22-.12.44-.21.64-1.1,2.22-1.07,4.71-1.69,7.04-.48,1.82.43,2.04,1.92,1.97,1.91-.09,3.83-.02,5.74-.02Z"/>
  <path class="cls-1" d="m164.89,368.98c-.66.85-.68,1.57-.57,2.04.34,1.39.13,2.03-1.46,2.55,1.12,2.66-1.61,3.27-2.39,4.86-.83,1.68-1.52,2.36-3.22,2.31-.51-.02-.9,0-1.05.78-.52,2.66-2.76,3.64-4.96,2.12-.79-.55-1.68-.51-2.39-1.09-.53,1.03.14,1.45.67,1.83,1.77,1.26.51,1.76-.54,2.3-2.56,1.32-5.03,1.6-7.48-.99,1.64,2.17.46,3.07-1.15,3.55-1.36.4-2.81.46-4.22.69-.98.15-1.3-.51-1.68-1.22-.53-.98-.5-2.21-1.36-3.1-.84.73-.65,1.53-.35,2.33.73,1.96-.08,2.84-2.04,2.99-2.31.17-4.54.93-6.93-.29-.79-.4-2.46.29-3.76.3-1.53.01-2.02-.51-1.19-1.91.23-.4.48-.79.68-1.2.15-.32.5-.71.15-1.03-.44-.4-.81-.07-1.14.3-.64.75-1.37,1.44-1.95,2.24-.81,1.1-1.94,1.31-3.06.98-.92-.28-1.61-.78-.79-2.15.36-.6-1.12-.56-1.49-.21-1.61,1.53-2.83.06-4.14-.44-.71-.27-1.1-1.24-.48-1.66,1.29-.88.72-1.99.8-3.08.3-4.16.47-3.68.83-7.84.07-.83,1.08-2.96,1.77-3.22,2.82-1.06,6.13-3.04,8.91-4.23,1.08-.46.82-3,.51-4.34-.65-2.84-1.44-6.13-.14-8.57,1.65-3.12-.04-5.58-.03-8.31.06-9.09-4.66-16.73-6.88-25.11-1.05-3.97-2.23-7.91-3.5-11.82-.9-2.78-2-5.51-3.1-8.22-.97-2.38-1.14-4.95-2.03-7.38-2.89-7.85-5.58-15.78-8.18-23.74-3.12-9.56-6.01-19.19-9.08-28.77-1.5-4.69-3.15-9.34-4.77-14-.41-1.17-.5-2.35-.57-3.58-.1-1.76.89-2.54,2.32-2.92,1.61-.43,3.14.11,3.6,1.68,1.46,4.99,3.61,9.74,4.84,14.8.64,2.63,1.4,5.25,2.41,7.76,3.61,8.98,5.97,18.37,9.08,27.51,2.43,7.14,4.5,14.39,6.82,21.56,3.6,11.16,6.94,22.41,10.56,33.56,1.04,3.2,2.07,6.4,3.12,9.59.14.44.24.97.55,1.25,2.37,2.18,2.47,5.4,3.73,8.08.31.67.54,1.27,1.36,1.34,1.8.15,3.93,1.72,4.32,2.38s1.52,3.24,2.88,3.9,1.39,1.19,1.81,1.65c1.75,1.92,3.59,3.76,5.34,5.67,1.28,1.39,2.77,1.62,4.38.85,1.03-.5,2.23-.81,3.11-.4,1.88.86,3.36.15,4.97-.55,0,0,3.61-.55,4.33,1.92.13.44-2.31,1.92-2.15,2.19.14.23-.08.05,1.06-.28s2.43-1.11,3.13-.73c1.04.57,2.86,3.68,2.19,4.53Zm-44.44-12.59c-.66,1.94-.53,3.93.11,5.66,2.02,5.44,3.5,10.94,3.22,16.8-.03.6-.31,1.32.34,1.93.29-.81.64-1.5.78-2.22,1.59-7.99-2.43-14.88-4.45-22.16Zm16.87,10.32c.34,2.56,2.43,6.01,4.08,6.74-.75-3.09-2.28-5.61-4.08-6.74Z"/>
</svg>