<?xml version="1.0" encoding="UTF-8"?>
<svg id="Capa_2" data-name="Capa 2" xmlns="http://www.w3.org/2000/svg" viewBox="0 0 324.65 71.81">
  <defs>
    <style>
      .cls-1 {
        font-size: 13.8px;
      }

      .cls-1, .cls-2 {
        fill: #001135;
        font-family: MicrosoftSansSerif, 'Microsoft Sans Serif';
      }

      .cls-3, .cls-4 {
        fill: none;
      }

      .cls-2 {
        font-size: 34.5px;
      }

      .cls-4 {
        stroke: #1d1d1b;
        stroke-miterlimit: 10;
        stroke-width: 1.27px;
      }

      .cls-5 {
        fill: #1d1d1b;
      }
    </style>
  </defs>
  <g>
    <rect class="cls-5" x="60.87" y="15.68" width="4.09" height="1.27"/>
    <rect class="cls-5" x="60.87" y="18.94" width="4.09" height="1.27"/>
    <rect class="cls-5" x="60.87" y="22.21" width="4.09" height="1.27"/>
    <rect class="cls-5" x="60.87" y="25.47" width="4.09" height="1.27"/>
    <rect class="cls-5" x="60.87" y="28.74" width="4.09" height="1.27"/>
    <rect class="cls-5" x="60.87" y="32" width="4.09" height="1.27"/>
    <polyline class="cls-4" points="48.85 29.74 48.85 12.54 67.04 12.54 67.04 40.31"/>
    <line class="cls-3" x1="66.4" y1="40.32" x2="67.89" y2="40.29"/>
    <path class="cls-4" d="m20.26,48.89v-10.26h-4.16s-.06-.06-.02-.09l9.08-4.94v-4.54h4.53v2.08l10.81-5.88,24.24,13.35s0,.02,0,.02h-4.34v10.26"/>
    <polyline class="cls-4" points="68.99 42.75 68.99 20.72 74.37 19.39 79.74 20.72 79.74 36.34 73.47 31.1"/>
    <polyline class="cls-4" points="83.73 60.27 83.73 38.41 82.22 38.38 79.76 36.34 73.49 31.1 73.49 42.08 73.49 60.27"/>
    <rect class="cls-5" x="70.52" y="60.27" width="3.51" height="1.09"/>
    <rect class="cls-5" x="83.19" y="60.27" width="3.49" height="1.09"/>
    <polygon class="cls-5" points="74.4 8.96 73.23 19.79 75.51 19.77 74.4 8.96"/>
    <g>
      <rect class="cls-5" x="38.6" y="30.83" width="1.51" height="1.51"/>
      <rect class="cls-5" x="40.7" y="30.83" width="1.51" height="1.51"/>
      <rect class="cls-5" x="40.7" y="32.81" width="1.51" height="1.51"/>
      <rect class="cls-5" x="38.6" y="32.81" width="1.51" height="1.51"/>
    </g>
    <path class="cls-5" d="m10.89,50.93c.39-.11,2.17-.52,3.22-.47.21,0,.35-.08.36-.32.02-.6.11-1.18.38-1.73.06-.12.02-.24-.02-.37-.07-.27-.11-.55-.06-.83.07-.38-.1-.55-.46-.58-.36-.03-.38-.18-.17-.44.09-.11.33-.2.18-.4-.11-.17-.29-.08-.44-.01-.03-.62-.04-.64-.63-.64-.18,0-.38.04-.54-.02-.48-.17-.33-.6-.35-.96-.02-.31.23-.38.44-.38,1.32-.02,2.66-.17,3.96.14.78.18,1.4.69,1.8,1.41.35.61.11,1.01-.61,1.08-.11.01-.22,0-.34,0-.22-.01-.34.08-.35.31-.01.42-.03.84-.04,1.25,0,.11.02.22.09.31.46.57.7,1.24.91,1.93.06.21.22.18.37.19.68.03,1.37.03,2.05.08.67.05,1.34.09,2,.21.66.12,1.15.51,1.04,1.17-.02.11-.02.25-.11.3-.69.42-.62,1.16-.67,1.78-.14,1.69-.42,3.35-.67,5.03-.1.68-.22,1.38-.2,2.07.02.66-.35.99-.9,1.23-1.05.45-2.15.56-3.27.59-1.12.03-2.23-.05-3.32-.29-.52-.11-1.03-.33-1.51-.59-.34-.18-.43-.49-.46-.82-.06-.67-.1-1.33-.23-1.99-.18-.93-.14-1.88-.25-2.82-.04-.34-.14-.63-.44-.89-.75-.65-.85-1.43-.34-2.46.17-.33.15-.4-.15-.67-.65-.2-.57-1.19-.27-1.38Zm5.21-.48s0-.02,0-.03c.39,0,.78,0,1.17,0,.18,0,.36.04.19-.27-.11-.19-.09-.45-.13-.68-.09-.46-.2-.94-.52-1.28-.22-.23-.61-.05-.93-.09-.04,0-.08,0-.13,0q-.61-.01-.7.6s-.02.08-.04.12c-.2.4-.19.86-.31,1.28-.09.33.08.37.35.36.35-.02.7,0,1.04,0Z"/>
    <path class="cls-5" d="m33.2,57.54c-.12.16-.12.29-.1.37.06.25.02.37-.26.46.2.48-.29.6-.43.88-.15.31-.28.43-.59.42-.09,0-.16,0-.19.14-.09.48-.5.66-.9.38-.14-.1-.3-.09-.43-.2-.1.19.03.26.12.33.32.23.09.32-.1.42-.47.24-.92.29-1.36-.18.3.39.08.56-.21.65-.25.07-.51.08-.77.12-.18.03-.24-.09-.31-.22-.1-.18-.09-.4-.25-.56-.15.13-.12.28-.06.42.13.36-.02.52-.37.54-.42.03-.82.17-1.26-.05-.14-.07-.45.05-.68.05-.28,0-.37-.09-.22-.35.04-.07.09-.14.12-.22.03-.06.09-.13.03-.19-.08-.07-.15-.01-.21.06-.12.14-.25.26-.35.41-.15.2-.35.24-.56.18-.17-.05-.29-.14-.14-.39.07-.11-.2-.1-.27-.04-.29.28-.51.01-.75-.08-.13-.05-.2-.23-.09-.3.24-.16.13-.36.15-.56.06-.76.09-.67.15-1.43.01-.15.2-.54.32-.59.51-.19,1.12-.55,1.62-.77.2-.08.15-.54.09-.79-.12-.52-.26-1.11-.03-1.56.3-.57,0-1.01,0-1.51.01-1.65-.85-3.04-1.25-4.57-.19-.72-.41-1.44-.64-2.15-.16-.51-.36-1-.56-1.49-.18-.43-.21-.9-.37-1.34-.53-1.43-1.02-2.87-1.49-4.32-.57-1.74-1.09-3.49-1.65-5.23-.27-.85-.57-1.7-.87-2.54-.07-.21-.09-.43-.1-.65-.02-.32.16-.46.42-.53.29-.08.57.02.65.31.26.91.66,1.77.88,2.69.12.48.25.96.44,1.41.66,1.63,1.09,3.34,1.65,5,.44,1.3.82,2.62,1.24,3.92.65,2.03,1.26,4.07,1.92,6.1.19.58.38,1.16.57,1.74.03.08.04.18.1.23.43.4.45.98.68,1.47.06.12.1.23.25.24.33.03.71.31.78.43s.28.59.52.71.25.22.33.3c.32.35.65.68.97,1.03.23.25.5.29.8.15.19-.09.41-.15.57-.07.34.16.61.03.9-.1,0,0,.66-.1.79.35.02.08-.42.35-.39.4.02.04-.01,0,.19-.05s.44-.2.57-.13c.19.1.52.67.4.82Zm-8.08-2.29c-.12.35-.1.71.02,1.03.37.99.64,1.99.58,3.05,0,.11-.06.24.06.35.05-.15.12-.27.14-.4.29-1.45-.44-2.71-.81-4.03Zm3.07,1.88c.06.47.44,1.09.74,1.23-.14-.56-.41-1.02-.74-1.23Z"/>
  </g>
  <text class="cls-2" transform="translate(93.52 40.31)"><tspan x="0" y="0">Maxi Cleaners</tspan></text>
  <text class="cls-1" transform="translate(93.52 57.74)"><tspan x="0" y="0">Best Cleaners in Town</tspan></text>
</svg>