<?xml version="1.0" encoding="UTF-8"?>
<svg id="Capa_2" data-name="Capa 2" xmlns="http://www.w3.org/2000/svg" viewBox="0 0 200.08 50.78">
  <defs>
    <style>
      .cls-1 {
        stroke: #1d1d1b;
        stroke-miterlimit: 10;
        stroke-width: .74px;
      }

      .cls-1, .cls-2 {
        fill: none;
      }

      .cls-3 {
        font-size: 8px;
      }

      .cls-3, .cls-4 {
        fill: #001135;
        font-family: MicrosoftSansSerif, 'Microsoft Sans Serif';
      }

      .cls-4 {
        font-size: 20px;
      }

      .cls-5 {
        fill: #1d1d1b;
      }
    </style>
  </defs>
  <g>
    <rect class="cls-5" x="41.14" y="13.2" width="2.37" height=".73"/>
    <rect class="cls-5" x="41.14" y="15.09" width="2.37" height=".73"/>
    <rect class="cls-5" x="41.14" y="16.98" width="2.37" height=".73"/>
    <rect class="cls-5" x="41.14" y="18.88" width="2.37" height=".73"/>
    <rect class="cls-5" x="41.14" y="20.77" width="2.37" height=".73"/>
    <rect class="cls-5" x="41.14" y="22.66" width="2.37" height=".73"/>
    <polyline class="cls-1" points="34.17 21.35 34.17 11.38 44.72 11.38 44.72 27.48"/>
    <line class="cls-2" x1="44.34" y1="27.48" x2="45.21" y2="27.47"/>
    <path class="cls-1" d="m17.6,32.46v-5.95h-2.41s-.04-.04-.01-.05l5.26-2.87v-2.63h2.62v1.2l6.27-3.41,14.05,7.74s0,.01,0,.01h-2.51v5.95"/>
    <polyline class="cls-1" points="45.85 28.89 45.85 16.12 48.97 15.35 52.08 16.12 52.08 25.18 48.44 22.14"/>
    <polyline class="cls-1" points="54.39 39.05 54.39 26.38 53.52 26.36 52.09 25.18 48.46 22.14 48.46 28.51 48.46 39.05"/>
    <rect class="cls-5" x="46.74" y="39.05" width="2.03" height=".63"/>
    <rect class="cls-5" x="54.08" y="39.05" width="2.02" height=".63"/>
    <polygon class="cls-5" points="48.98 9.31 48.3 15.58 49.63 15.57 48.98 9.31"/>
    <g>
      <rect class="cls-5" x="28.23" y="21.98" width=".88" height=".88"/>
      <rect class="cls-5" x="29.45" y="21.98" width=".88" height=".88"/>
      <rect class="cls-5" x="29.45" y="23.13" width=".88" height=".88"/>
      <rect class="cls-5" x="28.23" y="23.13" width=".88" height=".88"/>
    </g>
    <path class="cls-5" d="m12.16,33.63c.23-.06,1.26-.3,1.87-.28.12,0,.2-.05.21-.18,0-.35.06-.69.22-1,.03-.07,0-.14-.01-.21-.04-.16-.07-.32-.03-.48.04-.22-.06-.32-.27-.34-.21-.02-.22-.1-.1-.26.05-.07.19-.11.11-.23-.07-.1-.17-.04-.26,0-.02-.36-.03-.37-.37-.37-.11,0-.22.02-.31-.01-.28-.1-.19-.35-.2-.56-.01-.18.13-.22.26-.22.77-.01,1.54-.1,2.29.08.45.11.81.4,1.05.81.2.35.07.58-.35.62-.06,0-.13,0-.19,0-.13,0-.2.05-.2.18,0,.24-.02.48-.02.73,0,.07,0,.13.05.18.26.33.41.72.53,1.12.04.12.13.1.21.11.4.02.79.02,1.19.05.39.03.78.05,1.16.12.38.07.66.3.6.68-.01.07-.01.14-.06.18-.4.24-.36.67-.39,1.03-.08.98-.25,1.94-.39,2.91-.06.39-.13.8-.11,1.2.01.38-.2.57-.52.71-.61.26-1.25.32-1.9.34-.65.02-1.29-.03-1.92-.17-.3-.07-.6-.19-.88-.34-.19-.11-.25-.29-.27-.48-.03-.39-.06-.77-.13-1.15-.11-.54-.08-1.09-.14-1.64-.02-.2-.08-.37-.26-.52-.44-.38-.49-.83-.2-1.42.1-.19.09-.23-.09-.39-.38-.11-.33-.69-.16-.8Zm3.02-.28s0-.01,0-.02c.23,0,.45,0,.68,0,.1,0,.21.02.11-.15-.06-.11-.05-.26-.08-.4-.05-.27-.12-.55-.3-.74-.13-.14-.36-.03-.54-.05-.02,0-.05,0-.07,0q-.35,0-.41.35s-.01.05-.02.07c-.12.23-.11.5-.18.74-.05.19.05.22.2.21.2,0,.4,0,.61,0Z"/>
    <path class="cls-5" d="m25.1,37.47c-.07.09-.07.17-.06.21.04.15.01.21-.15.27.12.28-.17.35-.25.51-.09.18-.16.25-.34.24-.05,0-.09,0-.11.08-.05.28-.29.38-.52.22-.08-.06-.18-.05-.25-.11-.06.11.01.15.07.19.19.13.05.19-.06.24-.27.14-.53.17-.79-.1.17.23.05.32-.12.37-.14.04-.3.05-.44.07-.1.02-.14-.05-.18-.13-.06-.1-.05-.23-.14-.33-.09.08-.07.16-.04.25.08.21,0,.3-.21.32-.24.02-.48.1-.73-.03-.08-.04-.26.03-.4.03-.16,0-.21-.05-.13-.2.02-.04.05-.08.07-.13.02-.03.05-.08.02-.11-.05-.04-.09,0-.12.03-.07.08-.14.15-.21.24-.09.12-.2.14-.32.1-.1-.03-.17-.08-.08-.23.04-.06-.12-.06-.16-.02-.17.16-.3,0-.44-.05-.07-.03-.12-.13-.05-.18.14-.09.08-.21.08-.32.03-.44.05-.39.09-.83,0-.09.11-.31.19-.34.3-.11.65-.32.94-.45.11-.05.09-.32.05-.46-.07-.3-.15-.65-.01-.9.17-.33,0-.59,0-.88,0-.96-.49-1.76-.73-2.65-.11-.42-.24-.83-.37-1.25-.1-.29-.21-.58-.33-.87-.1-.25-.12-.52-.21-.78-.31-.83-.59-1.66-.86-2.5-.33-1.01-.63-2.02-.96-3.03-.16-.49-.33-.98-.5-1.48-.04-.12-.05-.25-.06-.38-.01-.19.09-.27.24-.31.17-.05.33.01.38.18.15.53.38,1.03.51,1.56.07.28.15.55.25.82.38.95.63,1.94.96,2.9.26.75.47,1.52.72,2.27.38,1.18.73,2.36,1.11,3.54.11.34.22.67.33,1.01.02.05.03.1.06.13.25.23.26.57.39.85.03.07.06.13.14.14.19.02.41.18.45.25s.16.34.3.41.15.13.19.17c.18.2.38.4.56.6.13.15.29.17.46.09.11-.05.24-.09.33-.04.2.09.35.02.52-.06,0,0,.38-.06.46.2.01.05-.24.2-.23.23.01.02,0,0,.11-.03s.26-.12.33-.08c.11.06.3.39.23.48Zm-4.68-1.33c-.07.2-.06.41.01.6.21.57.37,1.15.34,1.77,0,.06-.03.14.04.2.03-.09.07-.16.08-.23.17-.84-.26-1.57-.47-2.34Zm1.78,1.09c.04.27.26.63.43.71-.08-.33-.24-.59-.43-.71Z"/>
  </g>
  <text class="cls-4" transform="translate(60.07 27.48)"><tspan x="0" y="0">Maxi Cleaners</tspan></text>
  <text class="cls-3" transform="translate(60.07 37.59)"><tspan x="0" y="0">Best Cleaners in Town</tspan></text>
</svg>